PathFileType	4	(X/Y/Z)	./resultDataOpenSim/trcMotMarkerGrf/sub06/qtm-15-07.trc
DataRate	CameraRate	NumFrames	NumMarkers	Units	OrigDataRate	OrigDataStartFrame	OrigNumFrames
250.000000	250.000000	8	24	m	250.000000	199	530
Frame#	Time	L.Toe.Tip			R.Toe.Tip			L.Ankle.Lat			R.Ankle.Lat			L.Ankle.Med			R.Ankle.Med			L.Heel			R.Heel			L.Knee.Lat			R.Knee.Lat			L.Knee.Med			R.Knee.Med			L.Thigh.Upper			R.Thigh.Upper			L.ASIS			R.ASIS			V.Sacral			L.Acromium			R.Acromium			C7			L.Elbow			R.Elbow			L.Wrist.Lat			R.Wrist.Lat
		X1	Y1	Z1	X2	Y2	Z2	X3	Y3	Z3	X4	Y4	Z4	X5	Y5	Z5	X6	Y6	Z6	X7	Y7	Z7	X8	Y8	Z8	X9	Y9	Z9	X10	Y10	Z10	X11	Y11	Z11	X12	Y12	Z12	X13	Y13	Z13	X14	Y14	Z14	X15	Y15	Z15	X16	Y16	Z16	X17	Y17	Z17	X18	Y18	Z18	X19	Y19	Z19	X20	Y20	Z20	X21	Y21	Z21	X22	Y22	Z22	X23	Y23	Z23	X24	Y24	Z24

199	0.792	0.12728369	-0.064998998	-0.030206169	-0.19920378	0.090755531	0.1119856	0.014292905	-0.032083893	-0.086090055	-0.24441696	0.22009733	0.12703955	-0.0086990508	-0.017429498	-0.0025802948	-0.20084547	0.21212815	0.047704113	-0.071094283	-0.058082829	-0.064020671	-0.28106331	0.25391395	0.060658423	0.10067543	0.33212454	-0.080639422	0.088326556	0.366752	0.19823655	0.058451639	0.33029883	0.031589033	0.082423259	0.34935914	0.064477243	0.017499342	0.71420374	-0.16900544	-0.086395672	0.7011094	0.16653866	0.066100564	0.76954663	-0.10894353	0.0091675736	0.76762591	0.13071057	-0.14402999	0.83195737	-0.026079687	0.031826915	1.2307561	-0.20080786	-0.038427693	1.2436849	0.15258912	-0.088802358	1.2716616	-0.045331234	-0.042242383	0.92898668	-0.26105077	-0.13463861	0.94203963	0.22960077	0.054874211	0.71140221	-0.31171585	0.052503134	0.77785123	0.2760228
200	0.796	0.12726816	-0.065007307	-0.03008823	-0.17786389	0.090138274	0.11362074	0.014362511	-0.031993672	-0.086127701	-0.22756295	0.21768048	0.1283947	-0.0086085069	-0.017271153	-0.002573614	-0.18390467	0.21116072	0.048468035	-0.071055575	-0.05785494	-0.06409047	-0.26553071	0.25056842	0.062172592	0.10199966	0.332424	-0.080283227	0.10293746	0.37209298	0.1970256	0.05747602	0.3311242	0.03201948	0.096643841	0.35500033	0.06341054	0.024079843	0.71502138	-0.16907802	-0.079586275	0.70275133	0.16634871	0.071881371	0.77047957	-0.10850309	0.014607247	0.76984302	0.13124455	-0.13785394	0.83299252	-0.027432352	0.03944646	1.232123	-0.20022808	-0.032462936	1.2451593	0.15274063	-0.08206677	1.2726241	-0.045441229	-0.032497065	0.9291859	-0.2611334	-0.12991675	0.94437565	0.22742583	0.069423329	0.71337238	-0.31084145	0.05121	0.77542813	0.27777929
201	0.8	0.12726688	-0.065012297	-0.029980038	-0.1564303	0.089499898	0.11531582	0.014423273	-0.031895327	-0.086151194	-0.21041181	0.2151713	0.12985816	-0.0087984627	-0.017113018	-0.0027455311	-0.1669139	0.20997189	0.049126083	-0.071016638	-0.057612301	-0.064111055	-0.25000167	0.24703942	0.063782299	0.10311472	0.33290538	-0.080130878	0.11719831	0.37763369	0.19571644	0.056388416	0.33204403	0.032163622	0.11048413	0.360878	0.062355689	0.030482334	0.71600421	-0.16899328	-0.073295023	0.70413427	0.16595328	0.077757272	0.7713177	-0.10808683	0.02015959	0.77203458	0.13180541	-0.13173781	0.83416197	-0.028623222	0.0469964	1.233516	-0.19969963	-0.026511361	1.2466552	0.15291221	-0.075213855	1.2737348	-0.045488068	-0.022649121	0.92937596	-0.2611767	-0.12525868	0.94661691	0.2255491	0.083967152	0.71551837	-0.30996832	0.049908305	0.77322593	0.27958315
202	0.804	0.12727407	-0.0650253	-0.02985511	-0.13496976	0.088882423	0.11700649	0.014473104	-0.031791956	-0.086174348	-0.19299571	0.21253123	0.13129264	-0.0091829841	-0.016917483	-0.003047526	-0.14984659	0.2085386	0.049771803	-0.070989791	-0.057350577	-0.064126344	-0.23430359	0.24324809	0.065431005	0.10410638	0.33337765	-0.080117452	0.13113614	0.38332773	0.19432253	0.055101753	0.33294185	0.03199854	0.12396581	0.36687378	0.061253255	0.036640941	0.71703258	-0.16877024	-0.067926037	0.70523595	0.16521177	0.083686566	0.77211748	-0.10775619	0.025797415	0.77420387	0.13235243	-0.12567106	0.83553747	-0.029569582	0.054440313	1.2349227	-0.19923843	-0.020561134	1.24815	0.15310461	-0.068236226	1.2749878	-0.045466251	-0.012744588	0.92951642	-0.26099416	-0.12077933	0.94874188	0.22391887	0.098499834	0.71784125	-0.30907678	0.048606696	0.77124031	0.28140217
203	0.808	0.12728572	-0.06504554	-0.029711424	-0.11341347	0.088352517	0.11874763	0.014511041	-0.031666146	-0.086222722	-0.17530676	0.20982704	0.13265439	-0.0095002434	-0.016628698	-0.0033405888	-0.13272862	0.20687678	0.05045591	-0.070970661	-0.057056332	-0.064167814	-0.21823329	0.2390617	0.066967338	0.1049755	0.33375868	-0.080234357	0.1447804	0.38913641	0.19286156	0.053650329	0.333812	0.031599568	0.13733402	0.37297677	0.060034154	0.042393442	0.71801613	-0.16849111	-0.063221107	0.7062917	0.1643186	0.089600206	0.77289966	-0.10755093	0.031525042	0.77633714	0.13286142	-0.11961385	0.83713541	-0.030223371	0.061766054	1.2363379	-0.19884819	-0.014625616	1.2496156	0.15331753	-0.061139652	1.2763662	-0.045372109	-0.0028833709	0.92959985	-0.26050184	-0.11651886	0.95069147	0.22245321	0.11302484	0.72035067	-0.30813573	0.047303716	0.76946116	0.283206
204	0.812	0.12729654	-0.065051398	-0.029590526	-0.091682059	0.087958097	0.12059967	0.014545052	-0.031489946	-0.086314333	-0.15738906	0.20715332	0.13399729	-0.009572005	-0.016229186	-0.0035406945	-0.11553227	0.20501382	0.051203394	-0.070946855	-0.056715359	-0.064246421	-0.20176724	0.23448264	0.06833221	0.10571082	0.33406831	-0.080476753	0.15816521	0.39503515	0.19134663	0.052309203	0.3346698	0.031093611	0.15058018	0.37918724	0.058756913	0.047702217	0.71892454	-0.16822978	-0.058360179	0.7076434	0.16369112	0.095456764	0.77364419	-0.10746888	0.037328258	0.77840351	0.13331171	-0.11347558	0.83890563	-0.030553322	0.068992008	1.2377619	-0.19852162	-0.0087005713	1.2510338	0.15355391	-0.053946294	1.2778457	-0.045205899	0.0068601726	0.92968062	-0.25981702	-0.11236664	0.9524001	0.22110024	0.12755267	0.7230528	-0.30711133	0.04600053	0.76787495	0.2849747
205	0.816	0.12729131	-0.065026022	-0.029552724	-0.069794911	0.087699188	0.12254268	0.014588925	-0.031246433	-0.086447014	-0.1393511	0.20451318	0.13536658	-0.0094479211	-0.015747625	-0.0036983244	-0.098188538	0.20297674	0.052039066	-0.070907887	-0.056326075	-0.064364722	-0.18507593	0.22969189	0.069611004	0.10633392	0.33436399	-0.080812738	0.17133344	0.40100745	0.18978503	0.051517567	0.33552272	0.030547016	0.16346324	0.38545366	0.057528129	0.052628091	0.71977112	-0.16803094	-0.052729488	0.70943008	0.16357412	0.10123167	0.77430553	-0.10748558	0.043157321	0.78037634	0.13367458	-0.10720477	0.84076312	-0.030506841	0.076142346	1.2391931	-0.19824479	-0.0027625299	1.2524035	0.15382177	-0.046688727	1.2794014	-0.044974918	0.016454548	0.9298319	-0.25909356	-0.10814845	0.95384987	0.21987234	0.14207638	0.72594025	-0.30598333	0.044697779	0.76646705	0.28669509
206	0.82	0.12724978	-0.064982807	-0.029623972	-0.047832713	0.087535695	0.12451169	0.014650508	-0.030943641	-0.086606301	-0.12125444	0.20184631	0.13673104	-0.0092751111	-0.015217054	-0.0039112991	-0.080671658	0.20079638	0.05298828	-0.070847445	-0.055897852	-0.064524829	-0.1682948	0.22485925	0.070900978	0.10687522	0.3346832	-0.081206875	0.18432118	0.40703636	0.18819355	0.051551649	0.33640274	0.029928359	0.1759236	0.39171552	0.056351119	0.057211672	0.72057336	-0.1679315	-0.046175603	0.71158308	0.16399682	0.10688312	0.77483651	-0.10758883	0.04902036	0.78226389	0.13393909	-0.10084081	0.84260954	-0.030091228	0.08323121	1.2406271	-0.19800182	0.003207828	1.2537307	0.15412485	-0.039396631	1.2810096	-0.044693732	0.025879632	0.93004596	-0.25843676	-0.10380906	0.9551023	0.21883426	0.1565737	0.7289983	-0.30474717	0.043391285	0.76522287	0.28835751
